<svg width="384" height="346" viewBox="0 0 384 346" fill="none" xmlns="http://www.w3.org/2000/svg">
<g clip-path="url(#clip0)">
<path d="M362.8 -0.903381H21.2C9.5 -0.903381 0 7.67886 0 18.2486V326.848C0 337.418 9.5 346 21.2 346H192V208.684H146.1V158.094H192V120.693C192 75.8851 226.4 51.4935 270.7 51.4935C291.9 51.4935 314.7 52.9389 320 53.5713V100.367H284.7C260.6 100.367 256 110.666 256 125.843V158.094H313.4L305.9 208.684H256V346H362.8C374.5 346 384 337.418 384 326.848V18.2486C384 7.67886 374.5 -0.903381 362.8 -0.903381Z" fill="black" fill-opacity="0.87"/>
</g>
<defs>
<clipPath id="clip0">
<rect width="384" height="346" fill="white"/>
</clipPath>
</defs>
</svg>
