<svg width="969" height="155" viewBox="0 0 969 155" fill="none" xmlns="http://www.w3.org/2000/svg">
<g clip-path="url(#clip0)">
<path d="M4.44 81.88C4.44 75.08 5.8 69.12 8.52 64C11.32 58.8 15.16 54.8 20.04 52C24.92 49.2 30.52 47.8 36.84 47.8C44.84 47.8 51.44 49.72 56.64 53.56C61.92 57.32 65.48 62.72 67.32 69.76H52.56C51.36 66.48 49.44 63.92 46.8 62.08C44.16 60.24 40.84 59.32 36.84 59.32C31.24 59.32 26.76 61.32 23.4 65.32C20.12 69.24 18.48 74.76 18.48 81.88C18.48 89 20.12 94.56 23.4 98.56C26.76 102.56 31.24 104.56 36.84 104.56C44.76 104.56 50 101.08 52.56 94.12H67.32C65.4 100.84 61.8 106.2 56.52 110.2C51.24 114.12 44.68 116.08 36.84 116.08C30.52 116.08 24.92 114.68 20.04 111.88C15.16 109 11.32 105 8.52 99.88C5.8 94.68 4.44 88.68 4.44 81.88ZM94.6331 26.2V115H80.9531V26.2H94.6331ZM119.554 40.12C117.074 40.12 114.994 39.28 113.314 37.6C111.634 35.92 110.794 33.84 110.794 31.36C110.794 28.88 111.634 26.8 113.314 25.12C114.994 23.44 117.074 22.6 119.554 22.6C121.954 22.6 123.994 23.44 125.674 25.12C127.354 26.8 128.194 28.88 128.194 31.36C128.194 33.84 127.354 35.92 125.674 37.6C123.994 39.28 121.954 40.12 119.554 40.12ZM126.274 48.88V115H112.594V48.88H126.274ZM224.274 47.8C229.474 47.8 234.114 48.88 238.194 51.04C242.354 53.2 245.594 56.4 247.914 60.64C250.314 64.88 251.514 70 251.514 76V115H237.954V78.04C237.954 72.12 236.474 67.6 233.514 64.48C230.554 61.28 226.514 59.68 221.394 59.68C216.274 59.68 212.194 61.28 209.154 64.48C206.194 67.6 204.714 72.12 204.714 78.04V115H191.154V78.04C191.154 72.12 189.674 67.6 186.714 64.48C183.754 61.28 179.714 59.68 174.594 59.68C169.474 59.68 165.394 61.28 162.354 64.48C159.394 67.6 157.914 72.12 157.914 78.04V115H144.234V48.88H157.914V56.44C160.154 53.72 162.994 51.6 166.434 50.08C169.874 48.56 173.554 47.8 177.474 47.8C182.754 47.8 187.474 48.92 191.634 51.16C195.794 53.4 198.994 56.64 201.234 60.88C203.234 56.88 206.354 53.72 210.594 51.4C214.834 49 219.394 47.8 224.274 47.8ZM264.362 81.64C264.362 75 265.722 69.12 268.442 64C271.242 58.88 275.002 54.92 279.722 52.12C284.522 49.24 289.802 47.8 295.562 47.8C300.762 47.8 305.282 48.84 309.122 50.92C313.042 52.92 316.162 55.44 318.482 58.48V48.88H332.282V115H318.482V105.16C316.162 108.28 313.002 110.88 309.002 112.96C305.002 115.04 300.442 116.08 295.322 116.08C289.642 116.08 284.442 114.64 279.722 111.76C275.002 108.8 271.242 104.72 268.442 99.52C265.722 94.24 264.362 88.28 264.362 81.64ZM318.482 81.88C318.482 77.32 317.522 73.36 315.602 70C313.762 66.64 311.322 64.08 308.282 62.32C305.242 60.56 301.962 59.68 298.442 59.68C294.922 59.68 291.642 60.56 288.602 62.32C285.562 64 283.082 66.52 281.162 69.88C279.322 73.16 278.402 77.08 278.402 81.64C278.402 86.2 279.322 90.2 281.162 93.64C283.082 97.08 285.562 99.72 288.602 101.56C291.722 103.32 295.002 104.2 298.442 104.2C301.962 104.2 305.242 103.32 308.282 101.56C311.322 99.8 313.762 97.24 315.602 93.88C317.522 90.44 318.482 86.44 318.482 81.88ZM366.21 60.04V96.64C366.21 99.12 366.77 100.92 367.89 102.04C369.09 103.08 371.09 103.6 373.89 103.6H382.29V115H371.49C365.33 115 360.61 113.56 357.33 110.68C354.05 107.8 352.41 103.12 352.41 96.64V60.04H344.61V48.88H352.41V32.44H366.21V48.88H382.29V60.04H366.21ZM455.498 80.32C455.498 82.8 455.338 85.04 455.018 87.04H404.498C404.898 92.32 406.858 96.56 410.378 99.76C413.898 102.96 418.218 104.56 423.338 104.56C430.698 104.56 435.898 101.48 438.938 95.32H453.698C451.698 101.4 448.058 106.4 442.778 110.32C437.578 114.16 431.098 116.08 423.338 116.08C417.018 116.08 411.338 114.68 406.298 111.88C401.338 109 397.418 105 394.538 99.88C391.738 94.68 390.338 88.68 390.338 81.88C390.338 75.08 391.698 69.12 394.418 64C397.218 58.8 401.098 54.8 406.058 52C411.098 49.2 416.858 47.8 423.338 47.8C429.578 47.8 435.138 49.16 440.018 51.88C444.898 54.6 448.698 58.44 451.418 63.4C454.138 68.28 455.498 73.92 455.498 80.32ZM441.218 76C441.138 70.96 439.338 66.92 435.818 63.88C432.298 60.84 427.938 59.32 422.738 59.32C418.018 59.32 413.978 60.84 410.618 63.88C407.258 66.84 405.258 70.88 404.618 76H441.218ZM580.173 47.8C585.373 47.8 590.013 48.88 594.093 51.04C598.253 53.2 601.493 56.4 603.813 60.64C606.213 64.88 607.413 70 607.413 76V115H593.853V78.04C593.853 72.12 592.373 67.6 589.413 64.48C586.453 61.28 582.413 59.68 577.293 59.68C572.173 59.68 568.093 61.28 565.053 64.48C562.093 67.6 560.613 72.12 560.613 78.04V115H547.053V78.04C547.053 72.12 545.573 67.6 542.613 64.48C539.653 61.28 535.613 59.68 530.493 59.68C525.373 59.68 521.293 61.28 518.253 64.48C515.293 67.6 513.813 72.12 513.813 78.04V115H500.133V48.88H513.813V56.44C516.053 53.72 518.893 51.6 522.333 50.08C525.773 48.56 529.453 47.8 533.373 47.8C538.653 47.8 543.373 48.92 547.533 51.16C551.693 53.4 554.893 56.64 557.133 60.88C559.133 56.88 562.253 53.72 566.493 51.4C570.733 49 575.293 47.8 580.173 47.8ZM653.5 116.08C647.26 116.08 641.62 114.68 636.58 111.88C631.54 109 627.58 105 624.7 99.88C621.82 94.68 620.38 88.68 620.38 81.88C620.38 75.16 621.86 69.2 624.82 64C627.78 58.8 631.82 54.8 636.94 52C642.06 49.2 647.78 47.8 654.1 47.8C660.42 47.8 666.14 49.2 671.26 52C676.38 54.8 680.42 58.8 683.38 64C686.34 69.2 687.82 75.16 687.82 81.88C687.82 88.6 686.3 94.56 683.26 99.76C680.22 104.96 676.06 109 670.78 111.88C665.58 114.68 659.82 116.08 653.5 116.08ZM653.5 104.2C657.02 104.2 660.3 103.36 663.34 101.68C666.46 100 668.98 97.48 670.9 94.12C672.82 90.76 673.78 86.68 673.78 81.88C673.78 77.08 672.86 73.04 671.02 69.76C669.18 66.4 666.74 63.88 663.7 62.2C660.66 60.52 657.38 59.68 653.86 59.68C650.34 59.68 647.06 60.52 644.02 62.2C641.06 63.88 638.7 66.4 636.94 69.76C635.18 73.04 634.3 77.08 634.3 81.88C634.3 89 636.1 94.52 639.7 98.44C643.38 102.28 647.98 104.2 653.5 104.2ZM734.704 47.8C739.904 47.8 744.544 48.88 748.624 51.04C752.784 53.2 756.024 56.4 758.344 60.64C760.664 64.88 761.824 70 761.824 76V115H748.264V78.04C748.264 72.12 746.784 67.6 743.824 64.48C740.864 61.28 736.824 59.68 731.704 59.68C726.584 59.68 722.504 61.28 719.464 64.48C716.504 67.6 715.024 72.12 715.024 78.04V115H701.344V48.88H715.024V56.44C717.264 53.72 720.104 51.6 723.544 50.08C727.064 48.56 730.784 47.8 734.704 47.8ZM786.233 40.12C783.753 40.12 781.673 39.28 779.993 37.6C778.313 35.92 777.473 33.84 777.473 31.36C777.473 28.88 778.313 26.8 779.993 25.12C781.673 23.44 783.753 22.6 786.233 22.6C788.633 22.6 790.673 23.44 792.353 25.12C794.033 26.8 794.873 28.88 794.873 31.36C794.873 33.84 794.033 35.92 792.353 37.6C790.673 39.28 788.633 40.12 786.233 40.12ZM792.953 48.88V115H779.273V48.88H792.953ZM826.874 60.04V96.64C826.874 99.12 827.434 100.92 828.554 102.04C829.754 103.08 831.754 103.6 834.554 103.6H842.954V115H832.154C825.994 115 821.274 113.56 817.994 110.68C814.714 107.8 813.074 103.12 813.074 96.64V60.04H805.274V48.88H813.074V32.44H826.874V48.88H842.954V60.04H826.874ZM884.243 116.08C878.003 116.08 872.363 114.68 867.323 111.88C862.283 109 858.323 105 855.443 99.88C852.563 94.68 851.123 88.68 851.123 81.88C851.123 75.16 852.603 69.2 855.563 64C858.523 58.8 862.563 54.8 867.683 52C872.803 49.2 878.523 47.8 884.843 47.8C891.163 47.8 896.883 49.2 902.003 52C907.123 54.8 911.163 58.8 914.123 64C917.083 69.2 918.563 75.16 918.563 81.88C918.563 88.6 917.043 94.56 914.003 99.76C910.963 104.96 906.803 109 901.523 111.88C896.323 114.68 890.563 116.08 884.243 116.08ZM884.243 104.2C887.763 104.2 891.043 103.36 894.083 101.68C897.203 100 899.723 97.48 901.643 94.12C903.563 90.76 904.523 86.68 904.523 81.88C904.523 77.08 903.603 73.04 901.763 69.76C899.923 66.4 897.483 63.88 894.443 62.2C891.403 60.52 888.123 59.68 884.603 59.68C881.083 59.68 877.803 60.52 874.763 62.2C871.803 63.88 869.443 66.4 867.683 69.76C865.923 73.04 865.043 77.08 865.043 81.88C865.043 89 866.843 94.52 870.443 98.44C874.123 102.28 878.723 104.2 884.243 104.2ZM945.766 58.48C947.766 55.12 950.406 52.52 953.686 50.68C957.046 48.76 961.006 47.8 965.566 47.8V61.96H962.086C956.726 61.96 952.646 63.32 949.846 66.04C947.126 68.76 945.766 73.48 945.766 80.2V115H932.086V48.88H945.766V58.48Z" fill="#00AAFF"/>
</g>
<defs>
<clipPath id="clip0">
<rect width="969" height="155" fill="white"/>
</clipPath>
</defs>
</svg>
