<svg width="1525" height="382" viewBox="0 0 1525 382" fill="none" xmlns="http://www.w3.org/2000/svg">
<g clip-path="url(#clip0_7_31)">
<rect width="1525" height="382" fill="white"/>
<rect width="600" height="400" transform="translate(0 -9)" fill="white"/>
<g clip-path="url(#clip1_7_31)">
<ellipse cx="335.769" cy="191.063" rx="159.624" ry="156.181" fill="white"/>
<path d="M286.967 59.8162C286.234 59.8162 285.43 60.1138 284.612 60.5639C286.538 60.007 287.442 59.8162 286.967 59.8162ZM334.663 68.9103L335.139 62.0821L327.778 62.5322L328.753 68.9026H334.663V68.9103ZM251.566 186.889C250.085 185.523 251.075 179.595 251.075 179.595C251.075 179.595 228.946 168.22 204.86 161.377C201.889 160.537 203.394 154.548 206.326 152.283L205.351 145.889C204.86 142.708 210.271 127.221 215.683 125.863C221.094 124.489 215.191 134.964 215.191 134.964L209.788 138.153C209.788 138.153 216.174 145.439 217.655 145.439C219.121 145.439 221.585 141.785 221.585 141.785L214.708 137.245L221.094 134.506L221.499 132.111L222.575 131.775L233.157 116.089C240.471 113.16 249.461 109.536 250.599 109.002C252.572 108.094 266.335 100.358 268.791 98.5422C271.255 96.7112 276.651 97.1766 278.616 97.1766C280.588 97.1766 283.536 96.2611 284.027 91.241C284.518 86.2363 286.483 85.3208 287.965 86.694C289.438 88.0444 286.483 90.3332 289.93 91.241C293.368 92.1565 296.316 94.4301 298.78 92.1565C300.573 90.4934 298.171 88.5937 296.55 87.1594H323.848L326.804 78.9427L320.41 78.0348L296.815 75.7537V73.0224L294.928 73.3352C297.485 59.595 312.659 61.8609 301.236 53.9036C300.542 53.4153 290.546 69.3223 287.996 69.0095C283.388 68.4144 277.438 68.3686 276.167 69.8334C274.483 71.7712 279.933 63.1731 284.627 60.5639C279.029 62.1737 269.001 57.1918 250.919 69.6885C244.806 73.9151 229.461 91.0503 223.137 97.6343C196.454 128.456 194.302 154.823 194.302 155.99C194.302 158.264 199.955 159.553 200.439 162.292C200.93 165.008 191.097 174.133 191.097 178.68C191.097 180.77 186.177 203.513 196.984 231.962C206.575 258.954 225.133 282.758 227.519 284.253L234.35 280.705C234.35 280.705 223.043 261.121 222.552 259.29C222.061 257.474 235.332 231.054 241.734 231.978C248.12 232.862 246.646 234.701 250.584 232.428C254.521 230.162 256.978 211.47 261.399 209.662C265.828 207.831 270.74 205.557 270.249 201.003C269.75 196.441 253.04 188.254 251.566 186.889ZM358.258 52.9804L344.987 48.4182L347.443 55.7117L358.258 52.9804ZM308.597 69.8334C310.078 69.8334 339.568 50.7146 336.621 50.2492C333.681 49.799 333.19 50.2492 325.307 49.3337C317.455 48.4258 309.08 60.2664 307.123 62.0974C305.158 63.9208 305.821 69.8334 308.597 69.8334ZM443.968 207.167L447.773 202.33L443.968 201.018L441.114 204.528L437.784 209.357L440.63 210.669L443.968 207.167ZM460.615 222.975L459.664 215.941H453.488L453.005 221.205L447.289 220.335L445.87 214.629L443.016 212.874L439.679 216.826L436.35 215.956L435.391 219.015L439.204 219.908V248.426L452.67 251.6C452.358 252.119 452.132 252.569 452.054 252.805C451.095 255.88 455.851 257.215 459.181 255.88C460.413 255.399 468.171 252.477 470.635 246.748C474.058 238.768 476.28 227.278 476.873 223.562L475.368 220.335L465.847 223.852L460.6 222.975H460.615ZM455.851 106.164C434.081 73.8693 381.775 52.7592 381.775 52.7592L368.302 59.6636L366.391 56.6043L361.643 54.842V58.8015L365.923 62.3186L363.077 63.6308L352.13 64.5006L327.388 77.6763L329.767 88.2122L326.905 89.0972L325.486 91.2868L333.58 103.127L334.055 107.087L327.396 108.399V116.295L323.591 117.173L324.067 123.322L291.7 145.279L292.651 157.554C295.029 160.629 313.595 179.069 313.595 179.069C313.595 179.069 335.007 179.939 339.763 177.314C344.527 174.682 341.19 179.946 342.625 181.266C344.044 182.586 344.527 191.802 345.946 192.679C347.381 193.557 345.946 198.813 347.849 200.591C349.751 202.338 349.751 223.41 349.751 223.41C349.751 223.41 361.175 242.285 361.175 247.106C361.175 251.928 360.691 251.493 369.744 251.058C378.781 250.623 380.684 247.106 382.586 245.802C384.489 244.497 384.489 241.415 386.392 238.768C388.31 236.128 391.631 226.05 395.92 222.54C400.193 219.015 411.624 216.376 412.568 210.249C413.519 204.093 417.8 199.271 417.8 199.271L438.377 177.978L437.8 180.839L437.324 191.81L443.516 189.62L443.04 177.757L440.825 175.46L441.137 175.124C441.137 175.124 439.703 172.492 437.808 172.492C435.905 172.492 424.474 175.124 422.579 174.69C420.677 174.247 412.583 153.175 411.156 152.305C409.721 151.428 400.692 136.933 400.692 136.933C400.692 136.933 421.62 161.514 424.95 171.173C426.884 176.795 434.151 171.562 440.061 165.695L441.621 169.425L445.418 168.54L444.942 164.154H449.223V170.738L447.796 174.255L447.305 179.954L451.118 183.471L453.021 180.404L459.188 174.69L466.331 171.18L468.241 174.69L469.192 179.519L467.29 184.783L463.485 187.858L461.582 195.762V199.713L457.301 197.074L456.826 188.743L450.642 189.193L447.796 196.647L452.077 202.803L462.066 204.123L470.152 196.654L471.103 182.189L474.705 177.535C477.052 183.433 478.729 189.605 478.729 195.35C478.729 201.651 483.828 192.168 481.333 172.943C481.325 172.92 477.411 127.266 455.851 106.164ZM360.676 125.077L334.983 124.184L345.915 115.41H351.623L360.668 121.552V125.077H360.676ZM392.099 122.002V125.954H381.159L382.111 128.594L375.444 129.479L374.976 131.661L370.22 130.799L361.643 129.036L363.077 126.847L364.512 124.199L369.268 119.37L371.179 122.887L378.306 122.445L382.111 118.485L396.871 121.125L392.099 122.002ZM393.043 116.295L387.335 117.173L386.392 113.213L393.518 112.343L394.477 108.392L399.717 113.663L393.043 116.295ZM420.653 252.805L417.316 255.445L417.792 262.029H422.073V256.338L425.893 251.493V241.407L423.5 240.949L420.653 252.805ZM388.77 239.645C388.77 239.645 385.432 240.492 389.238 241.834C393.043 243.162 408.271 220.335 408.271 220.335L395.421 228.232L388.77 239.645ZM362.867 323.78L360.021 321.125L354.313 320.24L353.369 322.903L345.751 322.025L345.268 318.493H339.56L333.377 322.025H322.445L321.494 319.37L303.895 317.593L301.041 320.255L293.914 318.501L292.955 312.298L289.626 311.84L285.82 318.493L272.978 318.043C275.278 319.103 294.444 330.295 323.856 332.63C362.859 335.712 381.409 326.443 381.409 326.443L379.982 325.1L362.867 323.78Z" fill="#003666"/>
<path d="M335.748 34.8826C293.385 34.8826 253.393 51.1644 223.116 80.72C192.815 110.291 176.108 149.395 176.108 190.83C176.108 277.086 247.723 347.244 335.748 347.244C423.781 347.244 495.419 277.086 495.419 190.83C495.419 104.848 423.781 34.8826 335.748 34.8826ZM335.748 41.3285C420.147 41.3285 488.831 108.403 488.831 190.83C488.831 273.538 420.147 340.829 335.748 340.829C251.356 340.829 182.696 273.53 182.696 190.83C182.696 151.127 198.709 113.655 227.762 85.2975C256.8 56.9549 295.147 41.3285 335.748 41.3285Z" fill="#003666"/>
</g>
<path d="M167.164 301.314C132.475 284.876 97.5243 263.329 63.0789 236.907C100.521 262.296 134.965 283.85 167.164 301.314C315.522 371.617 459.101 348.494 537.956 213.757L582.595 218.259C436.125 373.263 330.52 389.914 167.164 301.314Z" fill="#003666"/>
<path d="M63.0789 236.907C244.838 376.329 440.664 379.998 537.956 213.757L582.595 218.259C407.254 403.816 290.476 391.103 63.0789 236.907Z" stroke="#003666"/>
<path d="M537.404 213.756C429.884 -6.09543 258.518 2.79351 18 194.16C260.412 -20.5586 418.282 -41.7285 582.595 216.705L537.404 213.756Z" fill="#003666"/>
<path d="M537.404 213.756C429.884 -6.09543 258.518 2.79351 18 194.16C260.412 -20.5586 418.282 -41.7285 582.595 216.705L537.404 213.756Z" stroke="#003666"/>
<path d="M537.404 213.756C429.884 -6.09543 258.518 2.79351 18 194.16C260.412 -20.5586 418.282 -41.7285 582.595 216.705L537.404 213.756Z" stroke="#003666"/>
<path d="M650.93 132.83C650.93 120.79 653.38 110.29 658.28 101.33C663.18 92.23 669.97 85.23 678.65 80.33C687.33 75.29 697.27 72.77 708.47 72.77C722.89 72.77 734.79 76.41 744.17 83.69C753.69 90.83 760.06 100.91 763.28 113.93H731.57C729.89 108.89 727.02 104.97 722.96 102.17C719.04 99.23 714.14 97.76 708.26 97.76C699.86 97.76 693.21 100.84 688.31 107C683.41 113.02 680.96 121.63 680.96 132.83C680.96 143.89 683.41 152.5 688.31 158.66C693.21 164.68 699.86 167.69 708.26 167.69C720.16 167.69 727.93 162.37 731.57 151.73H763.28C760.06 164.33 753.69 174.34 744.17 181.76C734.65 189.18 722.75 192.89 708.47 192.89C697.27 192.89 687.33 190.44 678.65 185.54C669.97 180.5 663.18 173.5 658.28 164.54C653.38 155.44 650.93 144.87 650.93 132.83ZM818.418 35.6V191H789.018V35.6H818.418ZM866.575 60.8C861.395 60.8 857.055 59.19 853.555 55.97C850.195 52.61 848.515 48.48 848.515 43.58C848.515 38.68 850.195 34.62 853.555 31.4C857.055 28.04 861.395 26.36 866.575 26.36C871.755 26.36 876.025 28.04 879.385 31.4C882.885 34.62 884.635 38.68 884.635 43.58C884.635 48.48 882.885 52.61 879.385 55.97C876.025 59.19 871.755 60.8 866.575 60.8ZM881.065 74.66V191H851.665V74.66H881.065ZM1058.79 72.98C1073.07 72.98 1084.55 77.39 1093.23 86.21C1102.05 94.89 1106.46 107.07 1106.46 122.75V191H1077.06V126.74C1077.06 117.64 1074.75 110.71 1070.13 105.95C1065.51 101.05 1059.21 98.6 1051.23 98.6C1043.25 98.6 1036.88 101.05 1032.12 105.95C1027.5 110.71 1025.19 117.64 1025.19 126.74V191H995.793V126.74C995.793 117.64 993.483 110.71 988.863 105.95C984.243 101.05 977.943 98.6 969.963 98.6C961.843 98.6 955.403 101.05 950.643 105.95C946.023 110.71 943.713 117.64 943.713 126.74V191H914.313V74.66H943.713V88.73C947.493 83.83 952.323 79.98 958.203 77.18C964.223 74.38 970.803 72.98 977.943 72.98C987.043 72.98 995.163 74.94 1002.3 78.86C1009.44 82.64 1014.97 88.1 1018.89 95.24C1022.67 88.52 1028.13 83.13 1035.27 79.07C1042.55 75.01 1050.39 72.98 1058.79 72.98ZM1131 132.41C1131 120.65 1133.31 110.22 1137.93 101.12C1142.69 92.02 1149.06 85.02 1157.04 80.12C1165.16 75.22 1174.19 72.77 1184.13 72.77C1192.81 72.77 1200.37 74.52 1206.81 78.02C1213.39 81.52 1218.64 85.93 1222.56 91.25V74.66H1252.17V191H1222.56V173.99C1218.78 179.45 1213.53 184 1206.81 187.64C1200.23 191.14 1192.6 192.89 1183.92 192.89C1174.12 192.89 1165.16 190.37 1157.04 185.33C1149.06 180.29 1142.69 173.22 1137.93 164.12C1133.31 154.88 1131 144.31 1131 132.41ZM1222.56 132.83C1222.56 125.69 1221.16 119.6 1218.36 114.56C1215.56 109.38 1211.78 105.46 1207.02 102.8C1202.26 100 1197.15 98.6 1191.69 98.6C1186.23 98.6 1181.19 99.93 1176.57 102.59C1171.95 105.25 1168.17 109.17 1165.23 114.35C1162.43 119.39 1161.03 125.41 1161.03 132.41C1161.03 139.41 1162.43 145.57 1165.23 150.89C1168.17 156.07 1171.95 160.06 1176.57 162.86C1181.33 165.66 1186.37 167.06 1191.69 167.06C1197.15 167.06 1202.26 165.73 1207.02 163.07C1211.78 160.27 1215.56 156.35 1218.36 151.31C1221.16 146.13 1222.56 139.97 1222.56 132.83ZM1319.32 98.81V155.09C1319.32 159.01 1320.23 161.88 1322.05 163.7C1324.01 165.38 1327.23 166.22 1331.71 166.22H1345.36V191H1326.88C1302.1 191 1289.71 178.96 1289.71 154.88V98.81H1275.85V74.66H1289.71V45.89H1319.32V74.66H1345.36V98.81H1319.32ZM1478.85 130.31C1478.85 134.51 1478.57 138.29 1478.01 141.65H1392.96C1393.66 150.05 1396.6 156.63 1401.78 161.39C1406.96 166.15 1413.33 168.53 1420.89 168.53C1431.81 168.53 1439.58 163.84 1444.2 154.46H1475.91C1472.55 165.66 1466.11 174.9 1456.59 182.18C1447.07 189.32 1435.38 192.89 1421.52 192.89C1410.32 192.89 1400.24 190.44 1391.28 185.54C1382.46 180.5 1375.53 173.43 1370.49 164.33C1365.59 155.23 1363.14 144.73 1363.14 132.83C1363.14 120.79 1365.59 110.22 1370.49 101.12C1375.39 92.02 1382.25 85.02 1391.07 80.12C1399.89 75.22 1410.04 72.77 1421.52 72.77C1432.58 72.77 1442.45 75.15 1451.13 79.91C1459.95 84.67 1466.74 91.46 1471.5 100.28C1476.4 108.96 1478.85 118.97 1478.85 130.31ZM1448.4 121.91C1448.26 114.35 1445.53 108.33 1440.21 103.85C1434.89 99.23 1428.38 96.92 1420.68 96.92C1413.4 96.92 1407.24 99.16 1402.2 103.64C1397.3 107.98 1394.29 114.07 1393.17 121.91H1448.4Z" fill="#0076B2"/>
<path d="M802.97 207.98C817.25 207.98 828.73 212.39 837.41 221.21C846.23 229.89 850.64 242.07 850.64 257.75V326H821.24V261.74C821.24 252.64 818.93 245.71 814.31 240.95C809.69 236.05 803.39 233.6 795.41 233.6C787.43 233.6 781.06 236.05 776.3 240.95C771.68 245.71 769.37 252.64 769.37 261.74V326H739.97V261.74C739.97 252.64 737.66 245.71 733.04 240.95C728.42 236.05 722.12 233.6 714.14 233.6C706.02 233.6 699.58 236.05 694.82 240.95C690.2 245.71 687.89 252.64 687.89 261.74V326H658.49V209.66H687.89V223.73C691.67 218.83 696.5 214.98 702.38 212.18C708.4 209.38 714.98 207.98 722.12 207.98C731.22 207.98 739.34 209.94 746.48 213.86C753.62 217.64 759.15 223.1 763.07 230.24C766.85 223.52 772.31 218.13 779.45 214.07C786.73 210.01 794.57 207.98 802.97 207.98ZM930.199 327.89C918.999 327.89 908.919 325.44 899.959 320.54C890.999 315.5 883.929 308.43 878.749 299.33C873.709 290.23 871.189 279.73 871.189 267.83C871.189 255.93 873.779 245.43 878.959 236.33C884.279 227.23 891.489 220.23 900.589 215.33C909.689 210.29 919.839 207.77 931.039 207.77C942.239 207.77 952.389 210.29 961.489 215.33C970.589 220.23 977.729 227.23 982.909 236.33C988.229 245.43 990.889 255.93 990.889 267.83C990.889 279.73 988.159 290.23 982.699 299.33C977.379 308.43 970.099 315.5 960.859 320.54C951.759 325.44 941.539 327.89 930.199 327.89ZM930.199 302.27C935.519 302.27 940.489 301.01 945.109 298.49C949.869 295.83 953.649 291.91 956.449 286.73C959.249 281.55 960.649 275.25 960.649 267.83C960.649 256.77 957.709 248.3 951.829 242.42C946.089 236.4 939.019 233.39 930.619 233.39C922.219 233.39 915.149 236.4 909.409 242.42C903.809 248.3 901.009 256.77 901.009 267.83C901.009 278.89 903.739 287.43 909.199 293.45C914.799 299.33 921.799 302.27 930.199 302.27ZM1076.92 207.98C1090.78 207.98 1101.98 212.39 1110.52 221.21C1119.06 229.89 1123.33 242.07 1123.33 257.75V326H1093.93V261.74C1093.93 252.5 1091.62 245.43 1087 240.53C1082.38 235.49 1076.08 232.97 1068.1 232.97C1059.98 232.97 1053.54 235.49 1048.78 240.53C1044.16 245.43 1041.85 252.5 1041.85 261.74V326H1012.45V209.66H1041.85V224.15C1045.77 219.11 1050.74 215.19 1056.76 212.39C1062.92 209.45 1069.64 207.98 1076.92 207.98ZM1166.2 195.8C1161.02 195.8 1156.68 194.19 1153.18 190.97C1149.82 187.61 1148.14 183.48 1148.14 178.58C1148.14 173.68 1149.82 169.62 1153.18 166.4C1156.68 163.04 1161.02 161.36 1166.2 161.36C1171.38 161.36 1175.65 163.04 1179.01 166.4C1182.51 169.62 1184.26 173.68 1184.26 178.58C1184.26 183.48 1182.51 187.61 1179.01 190.97C1175.65 194.19 1171.38 195.8 1166.2 195.8ZM1180.69 209.66V326H1151.29V209.66H1180.69ZM1243.97 233.81V290.09C1243.97 294.01 1244.88 296.88 1246.7 298.7C1248.66 300.38 1251.88 301.22 1256.36 301.22H1270.01V326H1251.53C1226.75 326 1214.36 313.96 1214.36 289.88V233.81H1200.5V209.66H1214.36V180.89H1243.97V209.66H1270.01V233.81H1243.97ZM1342.82 327.89C1331.62 327.89 1321.54 325.44 1312.58 320.54C1303.62 315.5 1296.55 308.43 1291.37 299.33C1286.33 290.23 1283.81 279.73 1283.81 267.83C1283.81 255.93 1286.4 245.43 1291.58 236.33C1296.9 227.23 1304.11 220.23 1313.21 215.33C1322.31 210.29 1332.46 207.77 1343.66 207.77C1354.86 207.77 1365.01 210.29 1374.11 215.33C1383.21 220.23 1390.35 227.23 1395.53 236.33C1400.85 245.43 1403.51 255.93 1403.51 267.83C1403.51 279.73 1400.78 290.23 1395.32 299.33C1390 308.43 1382.72 315.5 1373.48 320.54C1364.38 325.44 1354.16 327.89 1342.82 327.89ZM1342.82 302.27C1348.14 302.27 1353.11 301.01 1357.73 298.49C1362.49 295.83 1366.27 291.91 1369.07 286.73C1371.87 281.55 1373.27 275.25 1373.27 267.83C1373.27 256.77 1370.33 248.3 1364.45 242.42C1358.71 236.4 1351.64 233.39 1343.24 233.39C1334.84 233.39 1327.77 236.4 1322.03 242.42C1316.43 248.3 1313.63 256.77 1313.63 267.83C1313.63 278.89 1316.36 287.43 1321.82 293.45C1327.42 299.33 1334.42 302.27 1342.82 302.27ZM1454.47 227.72C1458.25 221.56 1463.15 216.73 1469.17 213.23C1475.33 209.73 1482.33 207.98 1490.17 207.98V238.85H1482.4C1473.16 238.85 1466.16 241.02 1461.4 245.36C1456.78 249.7 1454.47 257.26 1454.47 268.04V326H1425.07V209.66H1454.47V227.72Z" fill="#003666"/>
</g>
<defs>
<clipPath id="clip0_7_31">
<rect width="1525" height="382" fill="white"/>
</clipPath>
<clipPath id="clip1_7_31">
<rect width="319.247" height="312.361" fill="white" transform="translate(176.146 34.8826)"/>
</clipPath>
</defs>
</svg>
