<svg width="1516" height="382" viewBox="0 0 1516 382" fill="none" xmlns="http://www.w3.org/2000/svg">
<g clip-path="url(#clip0)">
<rect width="1516" height="382" fill="white"/>
<rect width="600" height="400" transform="translate(20 -9)" fill="white"/>
<g clip-path="url(#clip1)">
<ellipse cx="355.769" cy="191.063" rx="159.624" ry="156.181" fill="white"/>
<path d="M306.967 59.8162C306.234 59.8162 305.43 60.1138 304.612 60.5639C306.538 60.007 307.442 59.8162 306.967 59.8162ZM354.663 68.9103L355.139 62.0821L347.778 62.5322L348.753 68.9026H354.663V68.9103ZM271.566 186.889C270.085 185.523 271.075 179.595 271.075 179.595C271.075 179.595 248.946 168.22 224.86 161.377C221.889 160.537 223.394 154.548 226.326 152.283L225.351 145.889C224.86 142.708 230.271 127.221 235.683 125.863C241.094 124.489 235.191 134.964 235.191 134.964L229.788 138.153C229.788 138.153 236.174 145.439 237.655 145.439C239.121 145.439 241.585 141.785 241.585 141.785L234.708 137.245L241.094 134.506L241.499 132.111L242.575 131.775L253.157 116.089C260.471 113.16 269.461 109.536 270.599 109.002C272.572 108.094 286.335 100.358 288.791 98.5422C291.255 96.7112 296.651 97.1766 298.616 97.1766C300.588 97.1766 303.536 96.2611 304.027 91.241C304.518 86.2363 306.483 85.3208 307.965 86.694C309.438 88.0444 306.483 90.3332 309.93 91.241C313.368 92.1565 316.316 94.4301 318.78 92.1565C320.573 90.4934 318.171 88.5937 316.55 87.1594H343.848L346.804 78.9427L340.41 78.0348L316.815 75.7537V73.0224L314.928 73.3352C317.485 59.595 332.659 61.8609 321.236 53.9036C320.542 53.4153 310.546 69.3223 307.996 69.0095C303.388 68.4144 297.438 68.3686 296.167 69.8334C294.483 71.7712 299.933 63.1731 304.627 60.5639C299.029 62.1737 289.001 57.1918 270.919 69.6885C264.806 73.9151 249.461 91.0503 243.137 97.6343C216.454 128.456 214.302 154.823 214.302 155.99C214.302 158.264 219.955 159.553 220.439 162.292C220.93 165.008 211.097 174.133 211.097 178.68C211.097 180.77 206.177 203.513 216.984 231.962C226.575 258.954 245.133 282.758 247.519 284.253L254.35 280.705C254.35 280.705 243.043 261.121 242.552 259.29C242.061 257.474 255.332 231.054 261.734 231.978C268.12 232.862 266.646 234.701 270.584 232.428C274.521 230.162 276.978 211.47 281.399 209.662C285.828 207.831 290.74 205.557 290.249 201.003C289.75 196.441 273.04 188.254 271.566 186.889ZM378.258 52.9804L364.987 48.4182L367.443 55.7117L378.258 52.9804ZM328.597 69.8334C330.078 69.8334 359.568 50.7146 356.621 50.2492C353.681 49.799 353.19 50.2492 345.307 49.3337C337.455 48.4258 329.08 60.2664 327.123 62.0974C325.158 63.9208 325.821 69.8334 328.597 69.8334ZM463.968 207.167L467.773 202.33L463.968 201.018L461.114 204.528L457.784 209.357L460.63 210.669L463.968 207.167ZM480.615 222.975L479.664 215.941H473.488L473.005 221.205L467.289 220.335L465.87 214.629L463.016 212.874L459.679 216.826L456.35 215.956L455.391 219.015L459.204 219.908V248.426L472.67 251.6C472.358 252.119 472.132 252.569 472.054 252.805C471.095 255.88 475.851 257.215 479.181 255.88C480.413 255.399 488.171 252.477 490.635 246.748C494.058 238.768 496.28 227.278 496.873 223.562L495.368 220.335L485.847 223.852L480.6 222.975H480.615ZM475.851 106.164C454.081 73.8693 401.775 52.7592 401.775 52.7592L388.302 59.6636L386.391 56.6043L381.643 54.842V58.8015L385.923 62.3186L383.077 63.6308L372.13 64.5006L347.388 77.6763L349.767 88.2122L346.905 89.0972L345.486 91.2868L353.58 103.127L354.055 107.087L347.396 108.399V116.295L343.591 117.173L344.067 123.322L311.7 145.279L312.651 157.554C315.029 160.629 333.595 179.069 333.595 179.069C333.595 179.069 355.007 179.939 359.763 177.314C364.527 174.682 361.19 179.946 362.625 181.266C364.044 182.586 364.527 191.802 365.946 192.679C367.381 193.557 365.946 198.813 367.849 200.591C369.751 202.338 369.751 223.41 369.751 223.41C369.751 223.41 381.175 242.285 381.175 247.106C381.175 251.928 380.691 251.493 389.744 251.058C398.781 250.623 400.684 247.106 402.586 245.802C404.489 244.497 404.489 241.415 406.392 238.768C408.31 236.128 411.631 226.05 415.92 222.54C420.193 219.015 431.624 216.376 432.568 210.249C433.519 204.093 437.8 199.271 437.8 199.271L458.377 177.978L457.8 180.839L457.324 191.81L463.516 189.62L463.04 177.757L460.825 175.46L461.137 175.124C461.137 175.124 459.703 172.492 457.808 172.492C455.905 172.492 444.474 175.124 442.579 174.69C440.677 174.247 432.583 153.175 431.156 152.305C429.721 151.428 420.692 136.933 420.692 136.933C420.692 136.933 441.62 161.514 444.95 171.173C446.884 176.795 454.151 171.562 460.061 165.695L461.621 169.425L465.418 168.54L464.942 164.154H469.223V170.738L467.796 174.255L467.305 179.954L471.118 183.471L473.021 180.404L479.188 174.69L486.331 171.18L488.241 174.69L489.192 179.519L487.29 184.783L483.485 187.858L481.582 195.762V199.713L477.301 197.074L476.826 188.743L470.642 189.193L467.796 196.647L472.077 202.803L482.066 204.123L490.152 196.654L491.103 182.189L494.705 177.535C497.052 183.433 498.729 189.605 498.729 195.35C498.729 201.651 503.828 192.168 501.333 172.943C501.325 172.92 497.411 127.266 475.851 106.164ZM380.676 125.077L354.983 124.184L365.915 115.41H371.623L380.668 121.552V125.077H380.676ZM412.099 122.002V125.954H401.159L402.111 128.594L395.444 129.479L394.976 131.661L390.22 130.799L381.643 129.036L383.077 126.847L384.512 124.199L389.268 119.37L391.179 122.887L398.306 122.445L402.111 118.485L416.871 121.125L412.099 122.002ZM413.043 116.295L407.335 117.173L406.392 113.213L413.518 112.343L414.477 108.392L419.717 113.663L413.043 116.295ZM440.653 252.805L437.316 255.445L437.792 262.029H442.073V256.338L445.893 251.493V241.407L443.5 240.949L440.653 252.805ZM408.77 239.645C408.77 239.645 405.432 240.492 409.238 241.834C413.043 243.162 428.271 220.335 428.271 220.335L415.421 228.232L408.77 239.645ZM382.867 323.78L380.021 321.125L374.313 320.24L373.369 322.903L365.751 322.025L365.268 318.493H359.56L353.377 322.025H342.445L341.494 319.37L323.895 317.593L321.041 320.255L313.914 318.501L312.955 312.298L309.626 311.84L305.82 318.493L292.978 318.043C295.278 319.103 314.444 330.295 343.856 332.63C382.859 335.712 401.409 326.443 401.409 326.443L399.982 325.1L382.867 323.78Z" fill="#003666"/>
<path d="M355.748 34.8826C313.385 34.8826 273.393 51.1644 243.116 80.72C212.815 110.291 196.108 149.395 196.108 190.83C196.108 277.086 267.723 347.244 355.748 347.244C443.781 347.244 515.419 277.086 515.419 190.83C515.419 104.848 443.781 34.8826 355.748 34.8826ZM355.748 41.3285C440.147 41.3285 508.831 108.403 508.831 190.83C508.831 273.538 440.147 340.829 355.748 340.829C271.356 340.829 202.696 273.53 202.696 190.83C202.696 151.127 218.709 113.655 247.762 85.2975C276.8 56.9549 315.147 41.3285 355.748 41.3285Z" fill="#003666"/>
</g>
<path d="M187.164 301.314C152.475 284.876 117.524 263.329 83.0789 236.907C120.521 262.296 154.965 283.85 187.164 301.314C335.522 371.617 479.101 348.494 557.956 213.757L602.595 218.259C456.125 373.263 350.52 389.914 187.164 301.314Z" fill="#003666"/>
<path d="M83.0789 236.907C264.838 376.329 460.664 379.998 557.956 213.757L602.595 218.259C427.254 403.816 310.476 391.103 83.0789 236.907Z" stroke="#003666"/>
<path d="M557.404 213.756C449.884 -6.09543 278.518 2.79351 38 194.16C280.412 -20.5586 438.282 -41.7285 602.595 216.705L557.404 213.756Z" fill="#003666"/>
<path d="M557.404 213.756C449.884 -6.09543 278.518 2.79351 38 194.16C280.412 -20.5586 438.282 -41.7285 602.595 216.705L557.404 213.756Z" stroke="#003666"/>
<path d="M557.404 213.756C449.884 -6.09543 278.518 2.79351 38 194.16C280.412 -20.5586 438.282 -41.7285 602.595 216.705L557.404 213.756Z" stroke="#003666"/>
<path d="M636.93 132.83C636.93 120.79 639.38 110.29 644.28 101.33C649.18 92.23 655.97 85.23 664.65 80.33C673.33 75.29 683.27 72.77 694.47 72.77C708.89 72.77 720.79 76.41 730.17 83.69C739.69 90.83 746.06 100.91 749.28 113.93H717.57C715.89 108.89 713.02 104.97 708.96 102.17C705.04 99.23 700.14 97.76 694.26 97.76C685.86 97.76 679.21 100.84 674.31 107C669.41 113.02 666.96 121.63 666.96 132.83C666.96 143.89 669.41 152.5 674.31 158.66C679.21 164.68 685.86 167.69 694.26 167.69C706.16 167.69 713.93 162.37 717.57 151.73H749.28C746.06 164.33 739.69 174.34 730.17 181.76C720.65 189.18 708.75 192.89 694.47 192.89C683.27 192.89 673.33 190.44 664.65 185.54C655.97 180.5 649.18 173.5 644.28 164.54C639.38 155.44 636.93 144.87 636.93 132.83ZM804.418 35.6V191H775.018V35.6H804.418ZM852.575 60.8C847.395 60.8 843.055 59.19 839.555 55.97C836.195 52.61 834.515 48.48 834.515 43.58C834.515 38.68 836.195 34.62 839.555 31.4C843.055 28.04 847.395 26.36 852.575 26.36C857.755 26.36 862.025 28.04 865.385 31.4C868.885 34.62 870.635 38.68 870.635 43.58C870.635 48.48 868.885 52.61 865.385 55.97C862.025 59.19 857.755 60.8 852.575 60.8ZM867.065 74.66V191H837.665V74.66H867.065ZM1044.79 72.98C1059.07 72.98 1070.55 77.39 1079.23 86.21C1088.05 94.89 1092.46 107.07 1092.46 122.75V191H1063.06V126.74C1063.06 117.64 1060.75 110.71 1056.13 105.95C1051.51 101.05 1045.21 98.6 1037.23 98.6C1029.25 98.6 1022.88 101.05 1018.12 105.95C1013.5 110.71 1011.19 117.64 1011.19 126.74V191H981.793V126.74C981.793 117.64 979.483 110.71 974.863 105.95C970.243 101.05 963.943 98.6 955.963 98.6C947.843 98.6 941.403 101.05 936.643 105.95C932.023 110.71 929.713 117.64 929.713 126.74V191H900.313V74.66H929.713V88.73C933.493 83.83 938.323 79.98 944.203 77.18C950.223 74.38 956.803 72.98 963.943 72.98C973.043 72.98 981.163 74.94 988.303 78.86C995.443 82.64 1000.97 88.1 1004.89 95.24C1008.67 88.52 1014.13 83.13 1021.27 79.07C1028.55 75.01 1036.39 72.98 1044.79 72.98ZM1117 132.41C1117 120.65 1119.31 110.22 1123.93 101.12C1128.69 92.02 1135.06 85.02 1143.04 80.12C1151.16 75.22 1160.19 72.77 1170.13 72.77C1178.81 72.77 1186.37 74.52 1192.81 78.02C1199.39 81.52 1204.64 85.93 1208.56 91.25V74.66H1238.17V191H1208.56V173.99C1204.78 179.45 1199.53 184 1192.81 187.64C1186.23 191.14 1178.6 192.89 1169.92 192.89C1160.12 192.89 1151.16 190.37 1143.04 185.33C1135.06 180.29 1128.69 173.22 1123.93 164.12C1119.31 154.88 1117 144.31 1117 132.41ZM1208.56 132.83C1208.56 125.69 1207.16 119.6 1204.36 114.56C1201.56 109.38 1197.78 105.46 1193.02 102.8C1188.26 100 1183.15 98.6 1177.69 98.6C1172.23 98.6 1167.19 99.93 1162.57 102.59C1157.95 105.25 1154.17 109.17 1151.23 114.35C1148.43 119.39 1147.03 125.41 1147.03 132.41C1147.03 139.41 1148.43 145.57 1151.23 150.89C1154.17 156.07 1157.95 160.06 1162.57 162.86C1167.33 165.66 1172.37 167.06 1177.69 167.06C1183.15 167.06 1188.26 165.73 1193.02 163.07C1197.78 160.27 1201.56 156.35 1204.36 151.31C1207.16 146.13 1208.56 139.97 1208.56 132.83ZM1305.32 98.81V155.09C1305.32 159.01 1306.23 161.88 1308.05 163.7C1310.01 165.38 1313.23 166.22 1317.71 166.22H1331.36V191H1312.88C1288.1 191 1275.71 178.96 1275.71 154.88V98.81H1261.85V74.66H1275.71V45.89H1305.32V74.66H1331.36V98.81H1305.32ZM1464.85 130.31C1464.85 134.51 1464.57 138.29 1464.01 141.65H1378.96C1379.66 150.05 1382.6 156.63 1387.78 161.39C1392.96 166.15 1399.33 168.53 1406.89 168.53C1417.81 168.53 1425.58 163.84 1430.2 154.46H1461.91C1458.55 165.66 1452.11 174.9 1442.59 182.18C1433.07 189.32 1421.38 192.89 1407.52 192.89C1396.32 192.89 1386.24 190.44 1377.28 185.54C1368.46 180.5 1361.53 173.43 1356.49 164.33C1351.59 155.23 1349.14 144.73 1349.14 132.83C1349.14 120.79 1351.59 110.22 1356.49 101.12C1361.39 92.02 1368.25 85.02 1377.07 80.12C1385.89 75.22 1396.04 72.77 1407.52 72.77C1418.58 72.77 1428.45 75.15 1437.13 79.91C1445.95 84.67 1452.74 91.46 1457.5 100.28C1462.4 108.96 1464.85 118.97 1464.85 130.31ZM1434.4 121.91C1434.26 114.35 1431.53 108.33 1426.21 103.85C1420.89 99.23 1414.38 96.92 1406.68 96.92C1399.4 96.92 1393.24 99.16 1388.2 103.64C1383.3 107.98 1380.29 114.07 1379.17 121.91H1434.4Z" fill="#0076B2"/>
<path d="M788.97 207.98C803.25 207.98 814.73 212.39 823.41 221.21C832.23 229.89 836.64 242.07 836.64 257.75V326H807.24V261.74C807.24 252.64 804.93 245.71 800.31 240.95C795.69 236.05 789.39 233.6 781.41 233.6C773.43 233.6 767.06 236.05 762.3 240.95C757.68 245.71 755.37 252.64 755.37 261.74V326H725.97V261.74C725.97 252.64 723.66 245.71 719.04 240.95C714.42 236.05 708.12 233.6 700.14 233.6C692.02 233.6 685.58 236.05 680.82 240.95C676.2 245.71 673.89 252.64 673.89 261.74V326H644.49V209.66H673.89V223.73C677.67 218.83 682.5 214.98 688.38 212.18C694.4 209.38 700.98 207.98 708.12 207.98C717.22 207.98 725.34 209.94 732.48 213.86C739.62 217.64 745.15 223.1 749.07 230.24C752.85 223.52 758.31 218.13 765.45 214.07C772.73 210.01 780.57 207.98 788.97 207.98ZM916.199 327.89C904.999 327.89 894.919 325.44 885.959 320.54C876.999 315.5 869.929 308.43 864.749 299.33C859.709 290.23 857.189 279.73 857.189 267.83C857.189 255.93 859.779 245.43 864.959 236.33C870.279 227.23 877.489 220.23 886.589 215.33C895.689 210.29 905.839 207.77 917.039 207.77C928.239 207.77 938.389 210.29 947.489 215.33C956.589 220.23 963.729 227.23 968.909 236.33C974.229 245.43 976.889 255.93 976.889 267.83C976.889 279.73 974.159 290.23 968.699 299.33C963.379 308.43 956.099 315.5 946.859 320.54C937.759 325.44 927.539 327.89 916.199 327.89ZM916.199 302.27C921.519 302.27 926.489 301.01 931.109 298.49C935.869 295.83 939.649 291.91 942.449 286.73C945.249 281.55 946.649 275.25 946.649 267.83C946.649 256.77 943.709 248.3 937.829 242.42C932.089 236.4 925.019 233.39 916.619 233.39C908.219 233.39 901.149 236.4 895.409 242.42C889.809 248.3 887.009 256.77 887.009 267.83C887.009 278.89 889.739 287.43 895.199 293.45C900.799 299.33 907.799 302.27 916.199 302.27ZM1062.92 207.98C1076.78 207.98 1087.98 212.39 1096.52 221.21C1105.06 229.89 1109.33 242.07 1109.33 257.75V326H1079.93V261.74C1079.93 252.5 1077.62 245.43 1073 240.53C1068.38 235.49 1062.08 232.97 1054.1 232.97C1045.98 232.97 1039.54 235.49 1034.78 240.53C1030.16 245.43 1027.85 252.5 1027.85 261.74V326H998.455V209.66H1027.85V224.15C1031.77 219.11 1036.74 215.19 1042.76 212.39C1048.92 209.45 1055.64 207.98 1062.92 207.98ZM1152.2 195.8C1147.02 195.8 1142.68 194.19 1139.18 190.97C1135.82 187.61 1134.14 183.48 1134.14 178.58C1134.14 173.68 1135.82 169.62 1139.18 166.4C1142.68 163.04 1147.02 161.36 1152.2 161.36C1157.38 161.36 1161.65 163.04 1165.01 166.4C1168.51 169.62 1170.26 173.68 1170.26 178.58C1170.26 183.48 1168.51 187.61 1165.01 190.97C1161.65 194.19 1157.38 195.8 1152.2 195.8ZM1166.69 209.66V326H1137.29V209.66H1166.69ZM1229.97 233.81V290.09C1229.97 294.01 1230.88 296.88 1232.7 298.7C1234.66 300.38 1237.88 301.22 1242.36 301.22H1256.01V326H1237.53C1212.75 326 1200.36 313.96 1200.36 289.88V233.81H1186.5V209.66H1200.36V180.89H1229.97V209.66H1256.01V233.81H1229.97ZM1328.82 327.89C1317.62 327.89 1307.54 325.44 1298.58 320.54C1289.62 315.5 1282.55 308.43 1277.37 299.33C1272.33 290.23 1269.81 279.73 1269.81 267.83C1269.81 255.93 1272.4 245.43 1277.58 236.33C1282.9 227.23 1290.11 220.23 1299.21 215.33C1308.31 210.29 1318.46 207.77 1329.66 207.77C1340.86 207.77 1351.01 210.29 1360.11 215.33C1369.21 220.23 1376.35 227.23 1381.53 236.33C1386.85 245.43 1389.51 255.93 1389.51 267.83C1389.51 279.73 1386.78 290.23 1381.32 299.33C1376 308.43 1368.72 315.5 1359.48 320.54C1350.38 325.44 1340.16 327.89 1328.82 327.89ZM1328.82 302.27C1334.14 302.27 1339.11 301.01 1343.73 298.49C1348.49 295.83 1352.27 291.91 1355.07 286.73C1357.87 281.55 1359.27 275.25 1359.27 267.83C1359.27 256.77 1356.33 248.3 1350.45 242.42C1344.71 236.4 1337.64 233.39 1329.24 233.39C1320.84 233.39 1313.77 236.4 1308.03 242.42C1302.43 248.3 1299.63 256.77 1299.63 267.83C1299.63 278.89 1302.36 287.43 1307.82 293.45C1313.42 299.33 1320.42 302.27 1328.82 302.27ZM1440.47 227.72C1444.25 221.56 1449.15 216.73 1455.17 213.23C1461.33 209.73 1468.33 207.98 1476.17 207.98V238.85H1468.4C1459.16 238.85 1452.16 241.02 1447.4 245.36C1442.78 249.7 1440.47 257.26 1440.47 268.04V326H1411.07V209.66H1440.47V227.72Z" fill="#003666"/>
</g>
<defs>
<clipPath id="clip0">
<rect width="1516" height="382" fill="white"/>
</clipPath>
<clipPath id="clip1">
<rect width="319.247" height="312.361" fill="white" transform="translate(196.146 34.8826)"/>
</clipPath>
</defs>
</svg>
